<svg width="17" height="17" viewBox="0 0 17 17" fill="none" xmlns="http://www.w3.org/2000/svg">
<path d="M16.44 8.44C16.44 4.02172 12.8583 0.440002 8.44 0.440002C4.02172 0.440002 0.440002 4.02172 0.440002 8.44C0.440002 10.4497 1.18664 12.2814 2.41015 13.6866V7.86426H5.17806V11.5773H8.49187V7.86426H11.2598V15.9191C14.2848 14.7777 16.44 11.8643 16.44 8.44Z" fill="#00CC96"/>
<path d="M5.17804 13.7195V15.74C6.17505 16.1863 7.27692 16.44 8.43998 16.44C8.45752 16.44 8.47468 16.4374 8.49222 16.4374V13.7195H5.17804Z" fill="#00CC96"/>
<path d="M8.49225 7.86426V11.5773H5.17844V7.86426H2.41016V13.6866C3.16874 14.5575 4.11016 15.262 5.17807 15.74V13.7195H8.49187V16.4374C9.46687 16.431 10.3971 16.2445 11.2598 15.9191V7.86426H8.49225Z" fill="white"/>
<path d="M12.7101 3.10008C12.6706 3.10493 12.5519 3.11799 12.4019 3.13366C12.2978 3.14448 12.1963 3.15307 12.128 3.15829C11.9926 2.91202 11.7527 2.74001 11.4527 2.74001C11.2168 2.74001 11.0251 2.81314 10.8642 3.01426C10.7292 3.18292 10.6415 3.41575 10.556 3.53702C9.85976 4.52396 8.74968 4.69635 7.44856 4.69635C7.14856 4.69635 6.85789 4.65941 6.5773 4.59486C6.53215 4.58441 6.48774 4.62993 6.50827 4.67172C7.03476 5.73627 8.28961 6.50568 9.30901 6.67433V7.85008H9.60603V6.7053C9.6355 6.7068 9.66573 6.70978 9.69483 6.71016C9.87842 6.71127 10.0437 6.69672 10.2004 6.67359V7.85008H10.4974V6.61239C10.9784 6.48142 11.3351 6.2206 11.6441 5.84486C12.0165 5.39187 12.234 4.58665 12.2471 3.80307C12.2956 3.75344 12.4079 3.6359 12.4833 3.53478C12.6564 3.30195 12.7922 3.08963 12.7101 3.10008ZM11.5266 3.62396C11.3989 3.62396 11.2956 3.5206 11.2956 3.39299C11.2956 3.26538 11.3989 3.16202 11.5266 3.16202C11.6542 3.16202 11.7575 3.26538 11.7575 3.39299C11.7575 3.5206 11.6542 3.62396 11.5266 3.62396Z" fill="white"/>
</svg>
